<svg width="110" height="32" viewBox="0 0 110 32" fill="none" xmlns="http://www.w3.org/2000/svg">
<path d="M43.0079 0.342863C43.1864 0.125767 43.4524 0 43.7332 0H106.242C108.317 0 110 1.68552 110 3.76471V28.2353C110 30.3145 108.317 32 106.242 32H43.7332C43.4524 32 43.1864 31.8742 43.0079 31.6571L31.1196 17.1966C30.5482 16.5016 30.5482 15.4984 31.1196 14.8034L43.0079 0.342863Z" fill="#FFC40C"/>
<path d="M11.1599 26.4287H19.5862L14.9997 32H0L24.0452 2.74246C25.4726 1.00565 27.6011 2.35461e-05 29.8471 0H32.6541L11.1599 26.4287Z" fill="white"/>
<path d="M30.1495 13.5951C29.0058 14.9844 29.005 16.9905 30.1476 18.3807L41.3409 32H29.8847C27.6408 31.9999 25.5139 30.9953 24.0865 29.2612L20.5934 25.0175H14.1246L34.4703 0H41.3409L30.1495 13.5951Z" fill="white"/>
<path d="M11.4938 0C13.7398 0 15.8683 1.00567 17.2957 2.74246L19.7559 5.73574L12.245 14.8755L0 0H11.4938Z" fill="white"/>
<path d="M53.7262 7.41304H46.9328V10.1705H52.6622V13.3483H46.9328V16.1164H53.7262V19.2941H46.2535C44.8782 19.294 43.7631 18.1761 43.7629 16.7973V6.73209C43.763 5.35333 44.8782 4.23542 46.2535 4.23529H53.7262V7.41304Z" fill="#27272A"/>
<path d="M62.5194 8.69425L65.408 4.23529H69.1882L65.0498 10.6227C64.6601 11.2242 64.6601 12.0002 65.0498 12.6017L69.3854 19.2941H65.6062L62.5194 14.5293L59.4327 19.2941H55.6534L59.989 12.6008C60.3783 11.9995 60.3783 11.2249 59.989 10.6236L55.8507 4.23529H59.6308L62.5194 8.69425Z" fill="#27272A"/>
<path d="M82.4257 7.41304H77.2278C75.8523 7.41304 74.7373 8.531 74.7372 9.90984V13.6196C74.7374 14.9984 75.8524 16.1164 77.2278 16.1164H82.4257V19.2941H77.2278C74.1017 19.2941 71.5675 16.7534 71.5673 13.6196V9.90984C71.5675 6.77598 74.1017 4.23529 77.2278 4.23529H82.4257V7.41304Z" fill="#27272A"/>
<path d="M94.0995 7.41304H87.3061V10.1705H93.0356V13.3483H87.3061V16.1164H94.0995V19.2941H86.6268C85.2514 19.2941 84.1364 18.1761 84.1362 16.7973V6.73209C84.1364 5.35327 85.2514 4.23533 86.6268 4.23529H94.0995V7.41304Z" fill="#27272A"/>
<path d="M98.9808 16.1164H105.774V19.2941H98.3016C96.9262 19.2939 95.811 18.1761 95.811 16.7973V4.23529H98.9808V16.1164Z" fill="#27272A"/>
<path d="M47.8675 25.7583L48.5901 25.9407C48.4386 26.5338 48.1655 26.9867 47.7707 27.2994C47.3783 27.6096 46.8978 27.7647 46.3292 27.7647C45.7407 27.7647 45.2615 27.6456 44.8915 27.4074C44.524 27.1666 44.2434 26.8192 44.0497 26.3651C43.8585 25.9109 43.7629 25.4233 43.7629 24.9021C43.7629 24.3338 43.8709 23.8387 44.087 23.4168C44.3055 22.9925 44.6146 22.6711 45.0144 22.4527C45.4167 22.2318 45.8587 22.1214 46.3404 22.1214C46.8867 22.1214 47.346 22.2604 47.7185 22.5383C48.091 22.8163 48.3505 23.2071 48.497 23.7109L47.7856 23.8784C47.6589 23.4813 47.4752 23.1922 47.2343 23.0111C46.9934 22.8299 46.6905 22.7393 46.3255 22.7393C45.9058 22.7393 45.5545 22.8398 45.2714 23.0408C44.9908 23.2419 44.7934 23.5124 44.6792 23.8524C44.565 24.1899 44.5079 24.5385 44.5079 24.8984C44.5079 25.3625 44.5749 25.7682 44.709 26.1156C44.8456 26.4606 45.0566 26.7187 45.3422 26.8899C45.6277 27.0612 45.9369 27.1468 46.2696 27.1468C46.6744 27.1468 47.017 27.0301 47.2976 26.7969C47.5782 26.5636 47.7682 26.2174 47.8675 25.7583Z" fill="#27272A"/>
<path d="M52.6206 25.0138C52.6206 24.108 52.864 23.3994 53.3507 22.8882C53.8373 22.3745 54.4656 22.1177 55.2353 22.1177C55.7394 22.1177 56.1938 22.238 56.5986 22.4787C57.0033 22.7195 57.3112 23.0557 57.5223 23.4875C57.7358 23.9169 57.8426 24.4045 57.8426 24.9505C57.8426 25.5039 57.7309 25.999 57.5074 26.4358C57.2839 26.8726 56.9673 27.2039 56.5576 27.4297C56.1479 27.653 55.7059 27.7647 55.2316 27.7647C54.7176 27.7647 54.2582 27.6406 53.8535 27.3925C53.4487 27.1443 53.1421 26.8056 52.9335 26.3762C52.7249 25.9469 52.6206 25.4927 52.6206 25.0138ZM53.3656 25.0249C53.3656 25.6826 53.5419 26.2013 53.8945 26.581C54.2495 26.9582 54.694 27.1468 55.2279 27.1468C55.7717 27.1468 56.2186 26.9557 56.5688 26.5735C56.9214 26.1913 57.0977 25.6491 57.0977 24.9468C57.0977 24.5026 57.0219 24.1154 56.8705 23.7853C56.7215 23.4528 56.5017 23.196 56.2112 23.0148C55.9232 22.8311 55.5991 22.7393 55.2391 22.7393C54.7275 22.7393 54.2868 22.9155 53.9168 23.2679C53.5493 23.6178 53.3656 24.2035 53.3656 25.0249Z" fill="#27272A"/>
<path d="M61.5342 27.6717L63.6312 22.2144H64.4096L66.6444 27.6717H65.8213L65.1844 26.0189H62.9011L62.3015 27.6717H61.5342ZM63.1097 25.4307H64.9609L64.391 23.9194C64.2172 23.4602 64.0881 23.083 64.0036 22.7877C63.9341 23.1376 63.836 23.4851 63.7094 23.83L63.1097 25.4307Z" fill="#27272A"/>
<path d="M71.4013 27.6717V22.8584H69.6023V22.2144H73.9303V22.8584H72.1239V27.6717H71.4013Z" fill="#27272A"/>
<path d="M78.1545 27.6717V22.2144H78.8771V27.6717H78.1545Z" fill="#27272A"/>
<path d="M83.5036 27.6717V22.2144H84.2448L87.1128 26.4991V22.2144H87.8056V27.6717H87.0644L84.1964 23.3833V27.6717H83.5036Z" fill="#27272A"/>
<path d="M94.9351 25.5312V24.8909L97.2481 24.8872V26.9123C96.893 27.1952 96.5267 27.4086 96.1493 27.5525C95.7719 27.694 95.3845 27.7647 94.9872 27.7647C94.4508 27.7647 93.9629 27.6506 93.5234 27.4222C93.0864 27.1915 92.7561 26.8589 92.5326 26.4246C92.3092 25.9903 92.1974 25.5052 92.1974 24.9691C92.1974 24.438 92.3079 23.9429 92.5289 23.4838C92.7524 23.0222 93.0727 22.6798 93.4899 22.4564C93.907 22.2331 94.3875 22.1214 94.9313 22.1214C95.3261 22.1214 95.6825 22.1859 96.0003 22.315C96.3206 22.4415 96.5714 22.619 96.7527 22.8473C96.934 23.0756 97.0718 23.3734 97.1661 23.7407L96.5143 23.9194C96.4324 23.6414 96.3306 23.423 96.2089 23.2642C96.0872 23.1054 95.9134 22.9788 95.6874 22.8845C95.4615 22.7877 95.2107 22.7393 94.9351 22.7393C94.6048 22.7393 94.3192 22.7902 94.0784 22.8919C93.8375 22.9912 93.6426 23.1227 93.4936 23.2865C93.3471 23.4503 93.2329 23.6302 93.1509 23.8263C93.0119 24.1638 92.9424 24.5299 92.9424 24.9244C92.9424 25.4108 93.0255 25.8178 93.1919 26.1454C93.3608 26.473 93.6053 26.7162 93.9257 26.875C94.246 27.0339 94.5862 27.1133 94.9462 27.1133C95.2591 27.1133 95.5645 27.0537 95.8625 26.9346C96.1605 26.813 96.3864 26.6839 96.5404 26.5475V25.5312H94.9351Z" fill="#27272A"/>
<path d="M101.428 25.9184L102.109 25.8588C102.141 26.1318 102.216 26.3564 102.333 26.5326C102.452 26.7063 102.636 26.8477 102.884 26.9569C103.132 27.0636 103.412 27.117 103.722 27.117C103.998 27.117 104.241 27.0761 104.452 26.9942C104.663 26.9123 104.82 26.8006 104.921 26.6591C105.026 26.5152 105.078 26.3589 105.078 26.1901C105.078 26.0189 105.028 25.87 104.929 25.7434C104.829 25.6143 104.666 25.5064 104.437 25.4195C104.291 25.3625 103.967 25.2744 103.465 25.1552C102.963 25.0336 102.612 24.9195 102.411 24.8128C102.15 24.6763 101.955 24.5075 101.826 24.3065C101.699 24.103 101.636 23.8759 101.636 23.6253C101.636 23.3498 101.714 23.093 101.871 22.8547C102.027 22.614 102.256 22.4316 102.556 22.3075C102.857 22.1834 103.191 22.1214 103.558 22.1214C103.963 22.1214 104.319 22.1871 104.627 22.3187C104.937 22.4477 105.176 22.6388 105.342 22.8919C105.509 23.1451 105.598 23.4317 105.61 23.7518L104.918 23.804C104.88 23.459 104.754 23.1984 104.538 23.0222C104.324 22.846 104.008 22.7579 103.588 22.7579C103.151 22.7579 102.832 22.8386 102.631 22.9999C102.432 23.1587 102.333 23.3511 102.333 23.5769C102.333 23.7729 102.403 23.9342 102.545 24.0608C102.684 24.1874 103.047 24.3177 103.633 24.4517C104.221 24.5832 104.625 24.6986 104.843 24.7979C105.161 24.9443 105.396 25.1304 105.547 25.3563C105.699 25.5796 105.774 25.8377 105.774 26.1305C105.774 26.4209 105.691 26.6951 105.525 26.9532C105.358 27.2088 105.119 27.4086 104.806 27.5525C104.495 27.694 104.145 27.7647 103.756 27.7647C103.261 27.7647 102.847 27.6928 102.511 27.5488C102.179 27.4049 101.917 27.189 101.726 26.9011C101.537 26.6107 101.438 26.2832 101.428 25.9184Z" fill="#27272A"/>
</svg>
